<svg xmlns="http://www.w3.org/2000/svg" fill="none" viewBox="0 0 20 20">
  <path
    fill="currentColor"
    d="M19 15C8 15 5.0002 9.5 5 0L1.5 2L1 7.5V17L3 19.5H17L19 17.5V15Z"
    opacity=".2"
  />
  <path
    fill="currentColor"
    fill-rule="evenodd"
    d="M5.7777 1.5H16C17.3807 1.5 18.5 2.61929 18.5 4V14.2461C13.412 14.1647 10.317 12.832 8.4526 10.5838C6.7139 8.487 5.9287 5.4609 5.7777 1.5ZM4.2766 1.5C4.4271 5.6264 5.2442 9.0646 7.298 11.5413C9.5535 14.2611 13.1624 15.6645 18.5 15.7462V16C18.5 17.3807 17.3807 18.5 16 18.5H4C2.61929 18.5 1.5 17.3807 1.5 16V4C1.5 2.61929 2.61929 1.5 4 1.5H4.2766ZM5.7502 0H4C1.79086 0 0 1.79086 0 4V16C0 18.2091 1.79086 20 4 20H16C18.2091 20 20 18.2091 20 16V4C20 1.79086 18.2091 0 16 0H5.7502Z"
    clip-rule="evenodd"
  />
</svg>
