<svg xmlns="http://www.w3.org/2000/svg" width="40" height="40" fill="none" viewBox="0 0 40 40">
  <g clip-path="url(#a)">
    <path
      fill="url(#b)"
      d="M20 40C31.0457 40 40 31.0457 40 20C40 8.9543 31.0457 0 20 0C8.9543 0 0 8.9543 0 20C0 31.0457 8.9543 40 20 40Z"
    />
    <path
      fill="#fff"
      fill-rule="evenodd"
      d="M12.414 10.5801H20.0332C24.6668 10.5801 28.1804 13.0713 29.4876 16.6953H31.8604V18.8857H29.9868C30.0236 19.2313 30.0428 19.5849 30.0428 19.9433V19.9977C30.0428 20.4009 30.0188 20.7977 29.9724 21.1865H31.8604V23.3769H29.4412C28.1004 26.9513 24.614 29.4185 20.0332 29.4185H12.414V23.3769H9.76758V21.1865H12.4156V18.8873H9.76758V16.6969H12.4156L12.414 10.5801ZM14.5436 23.3769V27.4537H20.0316C23.4188 27.4537 25.9356 25.8217 27.1068 23.3769H14.5436ZM27.7612 21.1865H14.5452V18.8873H27.7644C27.814 19.2489 27.838 19.6201 27.838 19.9977V20.0521C27.838 20.4377 27.8124 20.8169 27.7612 21.1865ZM20.0332 12.5433C23.4364 12.5433 25.9596 14.2185 27.1244 16.6969H14.5452V12.5433H20.0332Z"
      clip-rule="evenodd"
    />
  </g>
  <defs>
    <linearGradient id="b" x1="20" x2="20" y1="-4" y2="44" gradientUnits="userSpaceOnUse">
      <stop stop-color="#F9A606" />
      <stop offset="1" stop-color="#FBCC5F" />
    </linearGradient>
    <clipPath id="a"><rect width="40" height="40" fill="#fff" /></clipPath>
  </defs>
</svg>
