<svg xmlns="http://www.w3.org/2000/svg" width="20" height="20" fill="none">
  <path
    stroke="currentColor"
    stroke-linecap="round"
    stroke-linejoin="round"
    stroke-width="1.5"
    d="M13.333 18.889c-.881-.664-2.541-1.111-4.444-1.111m0 0c-1.903 0-3.563.447-4.445 1.11m4.445-1.11V11.11M2.222 5.61c3.833.382 6.232 2.78 6.613 6.614a.963.963 0 0 1-1.057 1.057c-3.833-.382-6.232-2.78-6.613-6.614A.962.962 0 0 1 2.222 5.61Zm15.556-4.457c-5.22.396-8.452 3.628-8.848 8.849A.993.993 0 0 0 10 11.07c5.22-.396 8.452-3.628 8.848-8.848a.993.993 0 0 0-1.07-1.07Z"
  ></path>
</svg>
