<svg xmlns="http://www.w3.org/2000/svg" fill="none" viewBox="0 0 20 20">
  <path
    fill="currentColor"
    d="M10 4.518C6.973 4.518 4.519 6.971 4.519 9.999 4.519 13.027 6.973 15.48 10 15.48 13.027 15.48 15.481 13.026 15.481 9.999 15.481 6.971 13.027 4.518 10 4.518ZM11.923 10.458 10.459 11.922C10.205 12.176 9.794 12.176 9.541 11.922L8.077 10.458C7.823 10.205 7.823 9.794 8.077 9.54L9.541 8.076C9.794 7.823 10.205 7.823 10.459 8.076L11.923 9.54C12.176 9.793 12.176 10.205 11.923 10.458ZM7.227 1.658C8.999 1.058 10.995 1.056 12.778 1.66 13.424 1.872 14.218 2.304 14.791 2.661 14.527 3.366 14.675 4.189 15.242 4.756 16.015 5.53 17.271 5.53 18.045 4.756 18.819 3.982 18.819 2.726 18.045 1.952 17.364 1.272 16.313 1.19 15.543 1.706 14.881 1.284 13.945.77 13.159.512 11.137-.171 8.862-.171 6.839.512 6.523.619 6.354.962 6.461 1.278 6.568 1.594 6.909 1.764 7.227 1.658ZM12.773 18.34C11.001 18.94 9.005 18.942 7.222 18.338 6.683 18.162 5.853 17.74 5.203 17.357 5.476 16.648 5.33 15.814 4.758 15.242 3.984 14.468 2.729 14.468 1.955 15.242 1.18 16.016 1.18 17.271 1.955 18.045 2.629 18.719 3.666 18.805 4.435 18.306 5.164 18.748 6.154 19.259 6.841 19.484 7.852 19.826 8.915 20 10.001 20 11.086 20 12.15 19.826 13.16 19.484 13.476 19.377 13.646 19.035 13.539 18.718 13.431 18.403 13.09 18.233 12.773 18.34ZM20 9.999C20 8.912 19.827 7.849 19.484 6.839 19.377 6.522 19.035 6.352 18.719 6.46 18.402 6.567 18.233 6.91 18.34 7.226 18.639 8.111 18.792 9.045 18.792 9.999 18.792 10.954 18.639 11.888 18.338 12.778 18.147 13.363 17.761 14.181 17.395 14.81 16.678 14.517 15.824 14.66 15.242 15.242 14.468 16.017 14.468 17.272 15.242 18.046 16.016 18.82 17.272 18.82 18.045 18.046 18.707 17.384 18.798 16.374 18.329 15.61 18.77 14.888 19.25 13.876 19.484 13.16 19.827 12.149 20 11.086 20 9.999ZM1.66 12.773C1.36 11.887 1.208 10.954 1.208 9.999 1.208 9.045 1.36 8.111 1.662 7.221 1.84 6.674 2.261 5.843 2.64 5.201 3.35 5.476 4.185 5.33 4.758 4.757 5.532 3.983 5.532 2.727 4.758 1.953 3.983 1.178 2.728 1.178 1.954 1.953 1.281 2.626 1.195 3.662 1.692 4.43 1.254 5.15.743 6.143.515 6.839.173 7.849 0 8.913 0 9.999 0 11.086.173 12.149.515 13.159.601 13.412.836 13.57 1.088 13.57 1.152 13.57 1.217 13.559 1.282 13.538 1.597 13.431 1.766 13.088 1.66 12.773Z"
  />
</svg>
