<svg xmlns="http://www.w3.org/2000/svg" fill="none" viewBox="0 0 20 20">
  <path
    fill="currentColor"
    d="M18.333 9.16606C18.2235 9.16606 18.1151 9.18764 18.014 9.22956C17.9129 9.27149 17.821 9.33293 17.7436 9.41039C17.6663 9.48785 17.6049 9.5798 17.5631 9.68098C17.5213 9.78216 17.4999 9.89058 17.5 10.0001C17.5 11.4834 17.0601 12.9335 16.236 14.1668C15.4119 15.4002 14.2406 16.3615 12.8701 16.9292C11.4997 17.4968 9.99169 17.6453 8.53683 17.3559C7.08198 17.0666 5.7456 16.3523 4.69671 15.3034C3.64782 14.2545 2.93351 12.9181 2.64412 11.4632C2.35473 10.0084 2.50326 8.50038 3.07092 7.12993C3.63857 5.75949 4.59987 4.58815 5.83324 3.76404C7.0666 2.93993 8.51665 2.50006 10 2.50006C11.2913 2.49756 12.5608 2.83227 13.683 3.47106L12.744 4.41106C12.6275 4.52762 12.5481 4.67613 12.516 4.8378C12.4839 4.99948 12.5005 5.16704 12.5636 5.31929C12.6268 5.47154 12.7337 5.60162 12.8709 5.69308C13.008 5.78453 13.1692 5.83325 13.334 5.83306H16.667C16.8879 5.83306 17.0998 5.7453 17.256 5.58908C17.4122 5.43286 17.5 5.22098 17.5 5.00006V1.66606C17.5 1.50131 17.4511 1.34027 17.3596 1.20329C17.2681 1.06631 17.138 0.959549 16.9858 0.896504C16.8336 0.83346 16.6661 0.816964 16.5045 0.849102C16.3429 0.88124 16.1945 0.960569 16.078 1.07706L14.902 2.25006C13.437 1.31902 11.7358 0.82728 10 0.833058C8.18695 0.833058 6.41461 1.37069 4.9071 2.37798C3.39959 3.38526 2.22464 4.81695 1.53081 6.492C0.83698 8.16705 0.655443 10.0102 1.00915 11.7885C1.36286 13.5667 2.23594 15.2001 3.51796 16.4821C4.79999 17.7641 6.4334 18.6372 8.21162 18.9909C9.98984 19.3446 11.833 19.1631 13.5081 18.4693C15.1831 17.7754 16.6148 16.6005 17.6221 15.093C18.6294 13.5855 19.167 11.8131 19.167 10.0001C19.1671 9.8905 19.1457 9.78199 19.1038 9.68074C19.0619 9.5795 19.0005 9.48751 18.923 9.41004C18.8456 9.33257 18.7536 9.27114 18.6523 9.22927C18.5511 9.18741 18.4426 9.16593 18.333 9.16606Z"
  />
</svg>
