<svg xmlns="http://www.w3.org/2000/svg" fill="none" viewBox="0 0 20 20">
  <path
    fill="currentColor"
    d="M2.05882 11.6429H4.17647C4.75882 11.6429 5.23529 11.1607 5.23529 10.5714V8.42857C5.23529 7.83929 4.75882 7.35714 4.17647 7.35714H2.05882C1.47647 7.35714 1 7.83929 1 8.42857V10.5714C1 11.1607 1.47647 11.6429 2.05882 11.6429ZM2.05882 17H4.17647C4.75882 17 5.23529 16.5179 5.23529 15.9286V13.7857C5.23529 13.1964 4.75882 12.7143 4.17647 12.7143H2.05882C1.47647 12.7143 1 13.1964 1 13.7857V15.9286C1 16.5179 1.47647 17 2.05882 17ZM2.05882 6.28571H4.17647C4.75882 6.28571 5.23529 5.80357 5.23529 5.21429V3.07143C5.23529 2.48214 4.75882 2 4.17647 2H2.05882C1.47647 2 1 2.48214 1 3.07143V5.21429C1 5.80357 1.47647 6.28571 2.05882 6.28571ZM7.35294 11.6429H17.9412C18.5235 11.6429 19 11.1607 19 10.5714V8.42857C19 7.83929 18.5235 7.35714 17.9412 7.35714H7.35294C6.77059 7.35714 6.29412 7.83929 6.29412 8.42857V10.5714C6.29412 11.1607 6.77059 11.6429 7.35294 11.6429ZM7.35294 17H17.9412C18.5235 17 19 16.5179 19 15.9286V13.7857C19 13.1964 18.5235 12.7143 17.9412 12.7143H7.35294C6.77059 12.7143 6.29412 13.1964 6.29412 13.7857V15.9286C6.29412 16.5179 6.77059 17 7.35294 17ZM6.29412 3.07143V5.21429C6.29412 5.80357 6.77059 6.28571 7.35294 6.28571H17.9412C18.5235 6.28571 19 5.80357 19 5.21429V3.07143C19 2.48214 18.5235 2 17.9412 2H7.35294C6.77059 2 6.29412 2.48214 6.29412 3.07143Z"
  />
</svg>
