<svg xmlns="http://www.w3.org/2000/svg" width="40" height="40" fill="none" viewBox="0 0 40 40">
  <path
    fill="#2775CA"
    d="M20 40C31.0834 40 40 31.0834 40 20C40 8.9166 31.0834 0 20 0C8.9166 0 0 8.9166 0 20C0 31.0834 8.9166 40 20 40Z"
  />
  <path
    fill="#fff"
    d="M25.4996 23.166C25.4996 20.2494 23.7496 19.2494 20.2496 18.8328C17.7496 18.4994 17.2496 17.8328 17.2496 16.666C17.2496 15.4992 18.083 14.7494 19.7496 14.7494C21.2496 14.7494 22.083 15.2494 22.4996 16.4994C22.583 16.7494 22.833 16.916 23.083 16.916H24.4162C24.7496 16.916 24.9996 16.666 24.9996 16.3328V16.2494C24.6662 14.416 23.1662 12.9994 21.2496 12.8328V10.8328C21.2496 10.4994 20.9996 10.2494 20.583 10.166H19.333C18.9996 10.166 18.7496 10.416 18.6662 10.8328V12.7494C16.1662 13.0828 14.583 14.7494 14.583 16.8328C14.583 19.5828 16.2496 20.666 19.7496 21.0828C22.083 21.4994 22.833 21.9994 22.833 23.3328C22.833 24.6662 21.6662 25.5828 20.083 25.5828C17.9162 25.5828 17.1662 24.666 16.9162 23.416C16.833 23.0828 16.583 22.916 16.333 22.916H14.9162C14.583 22.916 14.333 23.166 14.333 23.4994V23.5828C14.6662 25.666 15.9996 27.166 18.7496 27.5828V29.5828C18.7496 29.916 18.9996 30.166 19.4162 30.2494H20.6662C20.9996 30.2494 21.2496 29.9994 21.333 29.5828V27.5828C23.833 27.166 25.4996 25.416 25.4996 23.166Z"
  />
  <path
    fill="#fff"
    d="M15.7497 31.9172C9.24967 29.584 5.91627 22.334 8.33307 15.9172C9.58307 12.4172 12.3331 9.75058 15.7497 8.50058C16.0831 8.33398 16.2497 8.08398 16.2497 7.66718V6.50058C16.2497 6.16718 16.0831 5.91718 15.7497 5.83398C15.6663 5.83398 15.4997 5.83398 15.4163 5.91718C7.49967 8.41718 3.16627 16.834 5.66627 24.7506C7.16627 29.4172 10.7497 33.0006 15.4163 34.5006C15.7497 34.6672 16.0831 34.5006 16.1663 34.1672C16.2497 34.084 16.2497 34.0006 16.2497 33.834V32.6672C16.2497 32.4172 15.9997 32.084 15.7497 31.9172ZM24.5831 5.91718C24.2497 5.75058 23.9163 5.91718 23.8331 6.25058C23.7497 6.33398 23.7497 6.41718 23.7497 6.58398V7.75058C23.7497 8.08398 23.9997 8.41718 24.2497 8.58398C30.7497 10.9172 34.0831 18.1672 31.6663 24.584C30.4163 28.084 27.6663 30.7506 24.2497 32.0006C23.9163 32.1672 23.7497 32.4172 23.7497 32.834V34.0006C23.7497 34.334 23.9163 34.584 24.2497 34.6672C24.3331 34.6672 24.4997 34.6672 24.5831 34.584C32.4997 32.084 36.8331 23.6672 34.3331 15.7506C32.8331 11.0006 29.1663 7.41718 24.5831 5.91718Z"
  />
</svg>
