<svg xmlns="http://www.w3.org/2000/svg" width="40" height="40" fill="none" viewBox="0 0 40 40">
  <path
    fill="#26A17B"
    d="M20 0C31.0444 0 40 8.95556 40 20C40 31.0444 31.0444 40 20 40C8.95556 40 0 31.05 0 20C0 8.95 8.95556 0 20 0Z"
  />
  <path
    fill="#fff"
    d="M22.8165 17.7709V14.7931H29.622V10.2598H11.0943V14.7931H17.8998V17.7709C12.372 18.0264 8.21094 19.1209 8.21094 20.432C8.21094 21.7431 12.372 22.8375 17.8998 23.0931V32.6209H22.822V23.0931C28.3443 22.8375 32.4943 21.7431 32.4943 20.432C32.4887 19.1209 28.3387 18.0264 22.8165 17.7709ZM22.822 22.2875C22.6832 22.2931 21.972 22.3375 20.3832 22.3375C19.1109 22.3375 18.222 22.3042 17.9054 22.2875V22.2931C13.022 22.0764 9.37205 21.2264 9.37205 20.2098C9.37205 19.1931 13.0165 18.3431 17.9054 18.1264V21.4375C18.2276 21.4598 19.1387 21.5153 20.4054 21.5153C21.922 21.5153 22.6832 21.4542 22.8276 21.4375V18.1153C27.7054 18.332 31.3443 19.182 31.3443 20.1987C31.3332 21.2153 27.6943 22.0653 22.822 22.2875Z"
  />
</svg>
