<svg xmlns="http://www.w3.org/2000/svg" width="40" height="40" fill="none" viewBox="0 0 40 40">
  <path
    fill="#F0B90B"
    fill-rule="evenodd"
    d="M20 0C31.0464 0 40 8.9536 40 20C40 31.0464 31.0464 40 20 40C8.9536 40 0 31.0464 0 20C0 8.9536 8.9536 0 20 0Z"
    clip-rule="evenodd"
  />
  <path
    fill="#fff"
    d="M10.9916 20.0008L11.006 25.2888L15.4988 27.9336V31.0296L8.37562 26.852V18.4552L10.9916 20.0008ZM10.9916 14.7128V17.7944L8.37402 16.2456V13.164L10.9916 11.6168L13.622 13.1656L10.9916 14.7128ZM17.3756 13.164L19.9932 11.6152L22.6236 13.164L19.9932 14.7128L17.3756 13.164Z"
  />
  <path
    fill="#fff"
    d="M12.8828 24.1928V21.0968L15.5004 22.6456V25.7272L12.8828 24.1928ZM17.3756 29.0424L19.9932 30.5912L22.6236 29.0424V32.124L19.9932 33.6728L17.3756 32.124V29.0424ZM26.3756 13.164L28.9932 11.6152L31.6236 13.164V16.2456L28.9932 17.7944V14.7128L26.3756 13.164ZM28.9932 25.2888L29.0076 20.0008L31.6252 18.452V26.8488L24.502 31.0264V27.9304L28.9932 25.2888Z"
  />
  <path fill="#fff" d="M27.1166 24.1917L24.499 25.7261V22.6445L27.1166 21.0957V24.1917Z" />
  <path
    fill="#fff"
    d="M27.117 15.8081L27.1314 18.9041L22.6242 21.5489V26.8497L20.0066 28.3841L17.389 26.8497V21.5489L12.8818 18.9041V15.8081L15.5106 14.2593L19.9906 16.9169L24.4978 14.2593L27.1282 15.8081H27.117ZM12.8834 10.5201L19.9938 6.32812L27.117 10.5201L24.4994 12.0689L19.9922 9.41132L15.501 12.0689L12.8834 10.5201Z"
  />
</svg>
