<svg xmlns="http://www.w3.org/2000/svg" fill="none" viewBox="0 0 20 20">
  <path
    fill="currentColor"
    d="M2 9H5C5.55 9 6 8.55 6 8V4C6 3.45 5.55 3 5 3H2C1.45 3 1 3.45 1 4V8C1 8.55 1.45 9 2 9ZM2 16H5C5.55 16 6 15.55 6 15V11C6 10.45 5.55 10 5 10H2C1.45 10 1 10.45 1 11V15C1 15.55 1.45 16 2 16ZM8 16H11C11.55 16 12 15.55 12 15V11C12 10.45 11.55 10 11 10H8C7.45 10 7 10.45 7 11V15C7 15.55 7.45 16 8 16ZM14 16H17C17.55 16 18 15.55 18 15V11C18 10.45 17.55 10 17 10H14C13.45 10 13 10.45 13 11V15C13 15.55 13.45 16 14 16ZM8 9H11C11.55 9 12 8.55 12 8V4C12 3.45 11.55 3 11 3H8C7.45 3 7 3.45 7 4V8C7 8.55 7.45 9 8 9ZM13 4V8C13 8.55 13.45 9 14 9H17C17.55 9 18 8.55 18 8V4C18 3.45 17.55 3 17 3H14C13.45 3 13 3.45 13 4Z"
  />
</svg>
