<svg xmlns="http://www.w3.org/2000/svg" width="40" height="40" fill="none" viewBox="0 0 40 40">
  <path
    fill="#627EEA"
    d="M20 40C31.0457 40 40 31.0457 40 20C40 8.9543 31.0457 0 20 0C8.9543 0 0 8.9543 0 20C0 31.0457 8.9543 40 20 40Z"
  />
  <path fill="#fff" fill-opacity=".602" d="M20.6221 5V16.0875L29.9933 20.275L20.6221 5Z" />
  <path fill="#fff" d="M20.6225 5L11.25 20.275L20.6225 16.0875V5Z" />
  <path
    fill="#fff"
    fill-opacity=".602"
    d="M20.6221 27.4595V34.9933L29.9996 22.0195L20.6221 27.4595Z"
  />
  <path fill="#fff" d="M20.6225 34.9933V27.4583L11.25 22.0195L20.6225 34.9933Z" />
  <path
    fill="#fff"
    fill-opacity=".2"
    d="M20.6221 25.7161L29.9933 20.2748L20.6221 16.0898V25.7161Z"
  />
  <path fill="#fff" fill-opacity=".602" d="M11.25 20.2748L20.6225 25.7161V16.0898L11.25 20.2748Z" />
</svg>
