<svg xmlns="http://www.w3.org/2000/svg" width="40" height="40" fill="none" viewBox="0 0 40 40">
  <g clip-path="url(#a)">
    <path
      fill="url(#b)"
      d="M20 40C31.008 40 40 30.992 40 20C40 8.992 30.992 0 20 0C8.992 0 0 9.008 0 20C0 31.008 9.008 40 20 40Z"
    />
    <path
      fill="#fff"
      d="M25.7917 24.3195L31.4557 21.0555C31.7597 20.8795 31.9357 20.5595 31.9357 20.2075V13.6795C31.9357 13.3275 31.7437 13.0075 31.4557 12.8315L25.7917 9.56755C25.4877 9.39155 25.1197 9.39155 24.8157 9.56755L19.1517 12.8315C18.8477 13.0075 18.6717 13.3275 18.6717 13.6795V25.3595L14.7037 27.6475L10.7357 25.3595V20.7835L14.7037 18.4955L17.3277 19.9995V16.9275L15.1997 15.6955C15.0557 15.6155 14.8797 15.5675 14.7197 15.5675C14.5437 15.5675 14.3837 15.6155 14.2397 15.6955L8.5757 18.9595C8.2717 19.1355 8.0957 19.4555 8.0957 19.8075V26.3355C8.0957 26.6875 8.2877 27.0075 8.5757 27.1835L14.2397 30.4475C14.5437 30.6235 14.9117 30.6235 15.2157 30.4475L20.8797 27.1835C21.1837 27.0075 21.3597 26.6875 21.3597 26.3355V14.6555L21.4237 14.6075L25.3277 12.3515L29.2957 14.6395V19.2155L25.3277 21.5035L22.7197 19.9995V23.0715L24.8477 24.3035C25.1517 24.4795 25.5197 24.4795 25.8237 24.3035L25.7917 24.3195Z"
    />
  </g>
  <defs>
    <linearGradient
      id="b"
      x1="-7.316"
      x2="33.932"
      y1="3.248"
      y2="28.544"
      gradientUnits="userSpaceOnUse"
    >
      <stop stop-color="#A229C5" />
      <stop offset="1" stop-color="#7B3FE4" />
    </linearGradient>
    <clipPath id="a"><rect width="40" height="40" fill="#fff" /></clipPath>
  </defs>
</svg>
