<svg xmlns="http://www.w3.org/2000/svg" fill="none" viewBox="0 0 20 20">
  <path
    fill="currentColor"
    d="M10 11.667C10.921 11.667 11.667 10.921 11.667 10 11.667 9.08 10.921 8.334 10 8.334 9.08 8.334 8.334 9.08 8.334 10 8.334 10.921 9.08 11.667 10 11.667ZM3.333 11.667C4.254 11.667 5 10.921 5 10 5 9.08 4.254 8.334 3.333 8.334 2.413 8.334 1.667 9.08 1.667 10 1.667 10.921 2.413 11.667 3.333 11.667ZM16.667 11.667C17.587 11.667 18.333 10.921 18.333 10 18.333 9.08 17.587 8.334 16.667 8.334 15.746 8.334 15 9.08 15 10 15 10.921 15.746 11.667 16.667 11.667Z"
  />
</svg>
